<svg xmlns="http://www.w3.org/2000/svg" xmlns:xlink="http://www.w3.org/1999/xlink" x="0px" y="0px"
	 viewBox="0 0 24 24" style="enable-background:new 0 0 24 24;" xml:space="preserve">
<path d="M21,8H3C2.4,8,2,8.4,2,9v14c0,0.6,0.4,1,1,1h18c0.6,0,1-0.4,1-1V9C22,8.4,21.6,8,21,8z M20,22H4
	V10h16V22z M4,5c0-0.6,0.4-1,1-1h14c0.6,0,1,0.4,1,1s-0.4,1-1,1H5C4.4,6,4,5.6,4,5z M7,1c0-0.6,0.4-1,1-1h8c0.6,0,1,0.4,1,1
	s-0.4,1-1,1H8C7.4,2,7,1.6,7,1z M7,16v-2c0-0.6,0.4-1,1-1s1,0.4,1,1v1h6v-1c0-0.6,0.4-1,1-1s1,0.4,1,1v2c0,0.6-0.4,1-1,1H8
	C7.4,17,7,16.6,7,16z"/>
</svg>
