<svg xmlns="http://www.w3.org/2000/svg" xmlns:xlink="http://www.w3.org/1999/xlink" x="0px" y="0px"
	 viewBox="0 0 16 16" style="enable-background:new 0 0 16 16;" xml:space="preserve">
<path fill="#FFFFFF" d="M10,13.3c0.3,0,0.7-0.2,0.9-0.5l2-3.5H15c0.6,0,1-0.4,1-1c0-0.6-0.4-1-1-1h-2.7
	c-0.4,0-0.7,0.2-0.9,0.5l-1.1,2.1L8.2,3.4C8.1,3,7.7,2.7,7.3,2.7c-0.4,0-0.8,0.1-1,0.5L3.9,7.4H1c-0.6,0-1,0.4-1,1c0,0.6,0.4,1,1,1
	h3.5c0.4,0,0.7-0.2,0.9-0.5L7,6.1l2.1,6.5c0.1,0.4,0.4,0.6,0.8,0.7C9.9,13.3,10,13.3,10,13.3z"/>
</svg>
