<svg xmlns="http://www.w3.org/2000/svg" xmlns:xlink="http://www.w3.org/1999/xlink" x="0px" y="0px"
	 viewBox="0 0 66 76" style="enable-background:new 0 0 66 76;" xml:space="preserve">
<path fill="#002963" d="M66,73.4V76h-5.9h-2.6V62.8h2.6v10.6H66z M35.6,62.8v2.6h4V76h2.6V65.4h4v-2.6H35.6z M19.8,62.8v5.3h-5.3v-5.3
	h-2.6V76h2.6v-5.3h5.3V76h2.6V62.8H19.8z M31,62.8L23.8,76H27l4-7.3l4,7.3h3.3L31,62.8z M6.6,68.1H4c-0.7,0-1.3-0.6-1.3-1.3
	s0.6-1.3,1.3-1.3h5.9v-2.6H4c-2.2,0-4,1.8-4,4s1.8,4,4,4h2.6c0.7,0,1.3,0.6,1.3,1.3s-0.6,1.3-1.3,1.3H0.7V76h5.9c2.2,0,4-1.8,4-4
	S8.8,68.1,6.6,68.1z M56.1,65.4v-2.6h-5.9h-2.6V76h2.6h5.9v-2.6h-5.9v-2.6h5.3v-2.6h-5.3v-2.6H56.1z"/>
<path fill="#F16322" d="M33,74c0,1.1-0.9,2-2,2c-1.1,0-2-0.9-2-2c0-1.1,0.9-2,2-2C32.1,72,33,72.9,33,74z"/>
<path fill="#F16322" d="M41.9,50.5c0,4.9-4,8.9-8.9,8.9c-4.9,0-8.9-4-8.9-8.9s4-8.9,8.9-8.9C37.9,41.6,41.9,45.6,41.9,50.5z"/>
<path fill="#002963" d="M65.7,59.4H51L33,26.7L15,59.4H0.3L33,0L65.7,59.4z"/>
</svg>
