<svg xmlns="http://www.w3.org/2000/svg" xmlns:xlink="http://www.w3.org/1999/xlink" x="0px" y="0px"
	 viewBox="0 0 24 24" style="enable-background:new 0 0 24 24;" xml:space="preserve">
<path d="M12,20H3v-3c0-0.9,0.5-1.6,1.3-1.9C5.9,14.6,8.3,14,11,14c3.4,0,6-3.8,6-7V6c0-3.3-2.7-6-6-6
	S5,2.7,5,6v1c0,1.9,0.9,3.9,2.3,5.3c-1.4,0.2-2.7,0.6-3.6,0.9C2.1,13.8,1,15.3,1,17v4c0,0.6,0.4,1,1,1h10c0.6,0,1-0.4,1-1
	S12.6,20,12,20z M7,7V6c0-2.2,1.8-4,4-4c2.2,0,4,1.8,4,4v1c0,2.3-1.8,5-4,5S7,9.3,7,7z M23.7,22.3L21.4,20c0.4-0.6,0.6-1.3,0.6-2
	c0-2.2-1.8-4-4-4s-4,1.8-4,4s1.8,4,4,4c0.7,0,1.4-0.2,2-0.6l2.3,2.3c0.2,0.2,0.5,0.3,0.7,0.3s0.5-0.1,0.7-0.3
	C24.1,23.3,24.1,22.7,23.7,22.3z M16,18c0-1.1,0.9-2,2-2s2,0.9,2,2s-0.9,2-2,2S16,19.1,16,18z"/>
</svg>
