<?xml version="1.0" encoding="UTF-8"?><!DOCTYPE svg PUBLIC "-//W3C//DTD SVG 1.1//EN" "http://www.w3.org/Graphics/SVG/1.1/DTD/svg11.dtd"><svg xmlns="http://www.w3.org/2000/svg"><symbol id="accept-small" viewBox="0 0 16 16"><path fill="#FFF" d="M5.6 10.1L2.4 6.9 0 9.3l5.6 5.6L16 4.5l-2.4-2.4-8 8z"/></symbol><symbol id="accept-toast" viewBox="0 0 32 32"><path opacity=".7" fill="#FFF" d="M23 9.6l1.4 1.4L13 22.4 7.6 17 9 15.6l4 4 10-10zm9 6.4c0 8.8-7.2 16-16 16S0 24.8 0 16 7.2 0 16 0s16 7.2 16 16zm-2 0c0-7.7-6.3-14-14-14S2 8.3 2 16s6.3 14 14 14 14-6.3 14-14z"/></symbol><symbol id="accept" viewBox="0 0 16 16"><path fill="#3EC529" d="M8 0C3.6 0 0 3.6 0 8s3.6 8 8 8 8-3.6 8-8-3.6-8-8-8zM7 11.4L3.6 8 5 6.6l2 2 4-4L12.4 6 7 11.4z"/></symbol><symbol id="archive-menu" viewBox="0 0 24 24"><path d="M21 8H3c-.6 0-1 .4-1 1v14c0 .6.4 1 1 1h18c.6 0 1-.4 1-1V9c0-.6-.4-1-1-1zm-1 14H4V10h16v12zM4 5c0-.6.4-1 1-1h14c.6 0 1 .4 1 1s-.4 1-1 1H5c-.6 0-1-.4-1-1zm3-4c0-.6.4-1 1-1h8c.6 0 1 .4 1 1s-.4 1-1 1H8c-.6 0-1-.4-1-1zm0 15v-2c0-.6.4-1 1-1s1 .4 1 1v1h6v-1c0-.6.4-1 1-1s1 .4 1 1v2c0 .6-.4 1-1 1H8c-.6 0-1-.4-1-1z"/></symbol><symbol id="archive" viewBox="0 0 16 16"><path fill="#FFF" d="M13 16H4c-1.1 0-2-.9-2-2V2c0-1.1.9-2 2-2h5v.1L14.9 6h.1v8c0 1.1-.9 2-2 2zM9 2.9V5c0 .6.4 1 1 1h2.1L9 2.9zM9 8c-1.1 0-2-.9-2-2V2H5c-.6 0-1 .4-1 1v10c0 .6.4 1 1 1h7c.6 0 1-.4 1-1V8H9z"/></symbol><symbol id="calendar-menu" viewBox="0 0 24 24"><path d="M23 2h-4V1c0-.6-.4-1-1-1s-1 .4-1 1v1H7V1c0-.6-.4-1-1-1S5 .4 5 1v1H1c-.6 0-1 .4-1 1v20c0 .6.4 1 1 1h22c.6 0 1-.4 1-1V3c0-.6-.4-1-1-1zM2 4h3v1c0 .6.4 1 1 1s1-.4 1-1V4h10v1c0 .6.4 1 1 1s1-.4 1-1V4h3v4H2V4zm0 18V10h20v12H2z"/></symbol><symbol id="calendar" viewBox="0 0 16 16"><path fill="#A8AAB7" d="M15 2h-2V1c0-.6-.4-1-1-1h-1c-.6 0-1 .4-1 1v1H6V1c0-.6-.4-1-1-1H4c-.6 0-1 .4-1 1v1H1c-.6 0-1 .4-1 1v12c0 .6.4 1 1 1h14c.6 0 1-.4 1-1V3c0-.6-.4-1-1-1zm-1 12H2V7h12v7z"/></symbol><symbol id="chart" viewBox="0 0 24 24"><path d="M24 21c0 .6-.4 1-1 1H1c-.6 0-1-.4-1-1s.4-1 1-1h22c.6 0 1 .4 1 1zM1 17V8c0-.6.4-1 1-1h4c.6 0 1 .4 1 1v9c0 .6-.4 1-1 1H2c-.6 0-1-.4-1-1zm2-1h2V9H3v7zm6 1V3c0-.6.4-1 1-1h4c.6 0 1 .4 1 1v14c0 .6-.4 1-1 1h-4c-.6 0-1-.4-1-1zm2-1h2V4h-2v12zm6 1v-5c0-.6.4-1 1-1h4c.6 0 1 .4 1 1v5c0 .6-.4 1-1 1h-4c-.6 0-1-.4-1-1zm2-1h2v-3h-2v3z"/></symbol><symbol id="checkbox" viewBox="0 0 8 8"><path fill="#FFF" d="M7.5 2.7l-4.1 4c-.4.4-1 .4-1.4 0L.5 5.2c-.4-.4-.4-1 0-1.4.4-.4 1-.4 1.4 0l.8.8 3.4-3.4c.4-.4 1-.4 1.4 0 .4.4.4 1.1 0 1.5z"/></symbol><symbol id="circle" viewBox="0 0 16 16"><path d="M8 0C3.6 0 0 3.6 0 8s3.6 8 8 8 8-3.6 8-8-3.6-8-8-8z"/></symbol><symbol id="close" viewBox="0 0 10 10"><path fill="#fff" opacity=".7" d="M9.8.2c-.3-.3-.7-.3-1 0L5 4 1.2.2C.9-.1.5-.1.2.2c-.3.3-.3.7 0 1L4 5 .2 8.8c-.3.3-.3.7 0 1 .2.1.3.2.5.2s.4-.1.5-.2L5 6l3.8 3.8c.1.1.3.2.5.2.1 0 .4-.1.5-.2.3-.3.3-.7 0-1L6 5l3.8-3.8c.3-.3.3-.7 0-1z"/></symbol><symbol id="delete" viewBox="0 0 16 16"><path fill="#FFF" d="M5 7h2v6H5V7zm4 0h2v6H9V7zm3-6c0-.6-.4-1-1-1H5c-.6 0-1 .4-1 1v2H0v2h1v10c0 .6.4 1 1 1h12c.6 0 1-.4 1-1V5h1V3h-4V1zM6 2h4v1H6V2zm7 3v9H3V5h10z"/></symbol><symbol id="doc-tick" viewBox="0 0 24 24"><path d="M12 15c-.3 0-.5-.1-.7-.3l-4-4c-.4-.4-.4-1 0-1.4s1-.4 1.4 0l3.3 3.3L22.3 2.3c.4-.4 1-.4 1.4 0s.4 1 0 1.4l-11 11c-.2.2-.4.3-.7.3zm10 7V12c0-.6-.4-1-1-1s-1 .4-1 1v9H3V4h13c.6 0 1-.4 1-1s-.4-1-1-1H2c-.6 0-1 .4-1 1v19c0 .6.4 1 1 1h19c.6 0 1-.4 1-1z"/></symbol><symbol id="doc" viewBox="0 0 24 24"><path d="M17 7H7c-.6 0-1-.4-1-1s.4-1 1-1h10c.6 0 1 .4 1 1s-.4 1-1 1zm1 3c0-.6-.4-1-1-1H7c-.6 0-1 .4-1 1s.4 1 1 1h10c.6 0 1-.4 1-1zm-5 8c0-.6-.4-1-1-1H7c-.6 0-1 .4-1 1s.4 1 1 1h5c.6 0 1-.4 1-1zm5-4c0-.6-.4-1-1-1H7c-.6 0-1 .4-1 1s.4 1 1 1h10c.6 0 1-.4 1-1zm4 7V3c0-1.7-1.3-3-3-3H5C3.3 0 2 1.3 2 3v18c0 1.7 1.3 3 3 3h14c1.7 0 3-1.3 3-3zM19 2c.6 0 1 .4 1 1v18c0 .6-.4 1-1 1H5c-.6 0-1-.4-1-1V3c0-.6.4-1 1-1h14z"/></symbol><symbol id="dropdown-navigation" viewBox="0 0 12 12"><path fill="#CED0DA" d="M6 9.4L.6 4 2 2.6l4 4 4-4L11.4 4 6 9.4z"/></symbol><symbol id="dropdown" viewBox="0 0 12 12"><path fill="#a8aab7" d="M6 9.4L.6 4 2 2.6l4 4 4-4L11.4 4 6 9.4z"/></symbol><symbol id="edit" viewBox="0 0 16 16"><path fill="#FFF" d="M11.7.3c-.4-.4-1-.4-1.4 0l-10 10c-.2.2-.3.4-.3.7v4c0 .6.4 1 1 1h4c.3 0 .5-.1.7-.3l10-10c.4-.4.4-1 0-1.4l-4-4zM4.6 14H2v-2.6l6-6L10.6 8l-6 6zM12 6.6L9.4 4 11 2.4 13.6 5 12 6.6z"/></symbol><symbol id="exclamation" viewBox="0 0 16 16"><path fill="#FBC52D" d="M8 0C3.6 0 0 3.6 0 8s3.6 8 8 8 8-3.6 8-8-3.6-8-8-8zm0 12c-.6 0-1-.4-1-1s.4-1 1-1 1 .4 1 1-.4 1-1 1zm1-3H7V4h2v5z"/></symbol><symbol id="filter" viewBox="0 0 12 12"><path fill="#FFF" d="M7 11H5c-.6 0-1-.4-1-1s.4-1 1-1h2c.6 0 1 .4 1 1s-.4 1-1 1zm2-4H3c-.6 0-1-.4-1-1s.4-1 1-1h6c.6 0 1 .4 1 1s-.4 1-1 1zm2-4H1c-.6 0-1-.4-1-1s.4-1 1-1h10c.6 0 1 .4 1 1s-.4 1-1 1z"/></symbol><symbol id="hamburger-button" viewBox="0 0 24 24"><path fill="#ced0da" d="M24 13H0v-2h24v2zm0-7H0V4h24v2zm0 14H0v-2h24v2z"/></symbol><symbol id="history" viewBox="0 0 16 16"><path fill="#FFF" d="M10 13.3c.3 0 .7-.2.9-.5l2-3.5H15c.6 0 1-.4 1-1s-.4-1-1-1h-2.7c-.4 0-.7.2-.9.5l-1.1 2.1-2.1-6.5c-.1-.4-.5-.7-.9-.7s-.8.1-1 .5L3.9 7.4H1c-.6 0-1 .4-1 1s.4 1 1 1h3.5c.4 0 .7-.2.9-.5L7 6.1l2.1 6.5c.1.4.4.6.8.7h.1z"/></symbol><symbol id="inbox-toast" viewBox="0 0 32 32"><path opacity=".7" fill="#FFF" d="M0 4v24h32V4H0zm30 22H2V11.7l14 7.5 14-7.5V26zm0-16.6l-14 7.5L2 9.4V6h28v3.4z"/></symbol><symbol id="mail" viewBox="0 0 24 24"><path d="M0 2v20h24V2H0zm22 18H2V9.7l10 5.5 10-5.5V20zm0-12.6l-10 5.5L2 7.4V4h20v3.4z"/></symbol><symbol id="minus" viewBox="0 0 8 8"><path opacity=".8" d="M0 3h8v2H0V3z"/></symbol><symbol id="mobile" viewBox="0 0 16 16"><path fill="#FFF" d="M13 0H3C1.9 0 1 .9 1 2v12c0 1.1.9 2 2 2h10c1.1 0 2-.9 2-2V2c0-1.1-.9-2-2-2zM8 14c-.6 0-1-.4-1-1s.4-1 1-1 1 .4 1 1-.4 1-1 1zm5-4H3V2h10v8z"/></symbol><symbol id="pencil" viewBox="0 0 24 24"><path d="M23.6 6.4l-5-5c-.4-.4-1-.4-1.4 0l-2.3 2.3-1.4 1.4L2.3 16.3c-.2.2-.3.5-.3.7v5c0 .6.4 1 1 1h5c.3 0 .5-.1.7-.3l11.2-11.2 1.4-1.4 2.3-2.3c.4-.4.4-1.1 0-1.4zM7.5 21H4v-3.6l11-11 3.6 3.6L7.5 21zM19.9 8.6L16.3 5l1.6-1.6L21.5 7l-1.6 1.6z"/></symbol><symbol id="plus" viewBox="0 0 8 8"><path opacity=".4" d="M8 5H5v3H3V5H0V3h3V0h2v3h3v2z"/></symbol><symbol id="reject-small" viewBox="0 0 16 16"><path fill="#FFF" d="M12.2.9L8 5.2 3.8.9.9 3.8 5.2 8 .9 12.2l2.9 2.9L8 10.8l4.2 4.3 2.9-2.9L10.8 8l4.3-4.2L12.2.9z"/></symbol><symbol id="reject" viewBox="0 0 16 16"><path fill="#FF484F" d="M8 0C3.6 0 0 3.6 0 8s3.6 8 8 8 8-3.6 8-8-3.6-8-8-8zm3.5 10.1l-1.4 1.4L8 9.4l-2.1 2.1-1.4-1.4L6.6 8 4.5 5.9l1.4-1.4L8 6.6l2.1-2.1 1.4 1.4L9.4 8l2.1 2.1z"/></symbol><symbol id="search" viewBox="0 0 24 24"><path d="M23.7 22.3l-5-5c1.4-1.7 2.3-3.9 2.3-6.3 0-5.5-4.5-10-10-10S1 5.5 1 11s4.5 10 10 10c2.4 0 4.6-.8 6.3-2.3l5 5c.2.2.5.3.7.3s.5-.1.7-.3c.4-.4.4-1 0-1.4zM3 11c0-4.4 3.6-8 8-8s8 3.6 8 8-3.6 8-8 8-8-3.6-8-8z"/></symbol><symbol id="shatel" viewBox="0 0 66 76"><path fill="#002963" d="M66 73.4V76h-8.5V62.8h2.6v10.6H66zM35.6 62.8v2.6h4V76h2.6V65.4h4v-2.6H35.6zm-15.8 0v5.3h-5.3v-5.3h-2.6V76h2.6v-5.3h5.3V76h2.6V62.8h-2.6zm11.2 0L23.8 76H27l4-7.3 4 7.3h3.3L31 62.8zM6.6 68.1H4c-.7 0-1.3-.6-1.3-1.3s.6-1.3 1.3-1.3h5.9v-2.6H4c-2.2 0-4 1.8-4 4s1.8 4 4 4h2.6c.7 0 1.3.6 1.3 1.3s-.6 1.3-1.3 1.3H.7V76h5.9c2.2 0 4-1.8 4-4s-1.8-3.9-4-3.9zm49.5-2.7v-2.6h-8.5V76h8.5v-2.6h-5.9v-2.6h5.3v-2.6h-5.3v-2.6h5.9z"/><path fill="#F16322" d="M33 74c0 1.1-.9 2-2 2s-2-.9-2-2 .9-2 2-2 2 .9 2 2zM41.9 50.5c0 4.9-4 8.9-8.9 8.9s-8.9-4-8.9-8.9 4-8.9 8.9-8.9 8.9 4 8.9 8.9z"/><path fill="#002963" d="M65.7 59.4H51L33 26.7 15 59.4H.3L33 0l32.7 59.4z"/></symbol><symbol id="time" viewBox="0 0 16 16"><path fill="#A8AAB7" d="M8 0C3.6 0 0 3.6 0 8s3.6 8 8 8 8-3.6 8-8-3.6-8-8-8zm0 14c-3.3 0-6-2.7-6-6s2.7-6 6-6 6 2.7 6 6-2.7 6-6 6zm1-7h3v2H7V4h2v3z"/></symbol><symbol id="transfer" viewBox="0 0 16 16"><path fill="#FFF" d="M8 5c5.2 0 8 3.8 8 10-1.5-2.4-2.7-4-8-4v4L0 8l8-7v4z"/></symbol><symbol id="user-search" viewBox="0 0 24 24"><path d="M12 20H3v-3c0-.9.5-1.6 1.3-1.9 1.6-.5 4-1.1 6.7-1.1 3.4 0 6-3.8 6-7V6c0-3.3-2.7-6-6-6S5 2.7 5 6v1c0 1.9.9 3.9 2.3 5.3-1.4.2-2.7.6-3.6.9C2.1 13.8 1 15.3 1 17v4c0 .6.4 1 1 1h10c.6 0 1-.4 1-1s-.4-1-1-1zM7 7V6c0-2.2 1.8-4 4-4s4 1.8 4 4v1c0 2.3-1.8 5-4 5S7 9.3 7 7zm16.7 15.3L21.4 20c.4-.6.6-1.3.6-2 0-2.2-1.8-4-4-4s-4 1.8-4 4 1.8 4 4 4c.7 0 1.4-.2 2-.6l2.3 2.3c.2.2.5.3.7.3s.5-.1.7-.3c.4-.4.4-1 0-1.4zM16 18c0-1.1.9-2 2-2s2 .9 2 2-.9 2-2 2-2-.9-2-2z"/></symbol><symbol id="user-tick" viewBox="0 0 24 24"><path d="M4.3 16.1c1.6-.5 4-1.1 6.7-1.1 3.4 0 6-3.8 6-7V7c0-3.3-2.7-6-6-6S5 3.7 5 7v1c0 1.9.9 3.9 2.3 5.3-1.4.2-2.7.6-3.6.9C2.1 14.8 1 16.3 1 18v4c0 .6.4 1 1 1h8c.6 0 1-.4 1-1s-.4-1-1-1H3v-3c0-.8.5-1.6 1.3-1.9zM7 8V7c0-2.2 1.8-4 4-4s4 1.8 4 4v1c0 2.3-1.8 5-4 5s-4-2.7-4-5zm15.7 10.7l-5 5c-.2.2-.4.3-.7.3s-.5-.1-.7-.3l-2-2c-.4-.4-.4-1 0-1.4s1-.4 1.4 0l1.3 1.3 4.3-4.3c.4-.4 1-.4 1.4 0s.4 1 0 1.4z"/></symbol><symbol id="view" viewBox="0 0 16 16"><path fill="#FFF" d="M8 14c4.7 0 7.7-5.3 7.9-5.5.2-.3.2-.7 0-1C15.7 7.3 12.7 2 8 2 3.2 2 .3 7.3.1 7.5c-.1.3-.1.7 0 1C.3 8.7 3.3 14 8 14zM8 4c2.8 0 5 2.8 5.8 4-.8 1.2-3 4-5.8 4S3 9.2 2.2 8C3 6.8 5.1 4 8 4zm0 2c1.1 0 2 .9 2 2s-.9 2-2 2-2-.9-2-2 .9-2 2-2z"/></symbol><symbol id="warning-inputbox" viewBox="0 0 16 16"><path fill="#ED1C24" d="M15.2 13.5L8.9 1.6c-.4-.7-1.4-.7-1.8 0L.8 13.5c-.4.7.1 1.5.9 1.5h12.7c.7-.1 1.2-.9.8-1.5zM8 12.9c-.6 0-1-.4-1-1s.4-1 1-1 1 .4 1 1-.4 1-1 1zm1-3H7v-4h2v4z"/></symbol><symbol id="warning-toast" viewBox="0 0 32 32"><path opacity=".7" fill="#FFF" d="M31.7 31H.4L16.1 1.9 31.7 31zm-28-2h24.7L16.1 6.1 3.7 29zM17 13h-2v8h2v-8zm0 10h-2v3h2v-3z"/></symbol></svg>