<svg xmlns="http://www.w3.org/2000/svg" xmlns:xlink="http://www.w3.org/1999/xlink" x="0px" y="0px"
	 viewBox="0 0 24 24" style="enable-background:new 0 0 24 24;" xml:space="preserve">
<path fill="#ffffff" opacity="0.8" d="M24,21c0,0.6-0.4,1-1,1H1c-0.6,0-1-0.4-1-1s0.4-1,1-1h22C23.6,20,24,20.4,24,21z M1,17V8
	c0-0.6,0.4-1,1-1h4c0.6,0,1,0.4,1,1v9c0,0.6-0.4,1-1,1H2C1.4,18,1,17.6,1,17z M3,16h2V9H3V16z M9,17V3c0-0.6,0.4-1,1-1h4
	c0.6,0,1,0.4,1,1v14c0,0.6-0.4,1-1,1h-4C9.4,18,9,17.6,9,17z M11,16h2V4h-2V16z M17,17v-5c0-0.6,0.4-1,1-1h4c0.6,0,1,0.4,1,1v5
	c0,0.6-0.4,1-1,1h-4C17.4,18,17,17.6,17,17z M19,16h2v-3h-2V16z"/>
</svg>
