<svg xmlns="http://www.w3.org/2000/svg" xmlns:xlink="http://www.w3.org/1999/xlink" x="0px" y="0px"
	 viewBox="0 0 24 24" style="enable-background:new 0 0 24 24;" xml:space="preserve">
<path fill="#9FA9BA" transform="translate(12, 444)" d="M5-437H-5c-0.6,0-1-0.4-1-1s0.4-1,1-1H5c0.6,0,1,0.4,1,1
	S5.6-437,5-437z M6-434c0-0.6-0.4-1-1-1H-5c-0.6,0-1,0.4-1,1s0.4,1,1,1H5C5.6-433,6-433.4,6-434z M1-426c0-0.6-0.4-1-1-1h-5
	c-0.6,0-1,0.4-1,1s0.4,1,1,1h5C0.6-425,1-425.4,1-426z M6-430c0-0.6-0.4-1-1-1H-5c-0.6,0-1,0.4-1,1s0.4,1,1,1H5
	C5.6-429,6-429.4,6-430z M10-423v-18c0-1.7-1.3-3-3-3H-7c-1.7,0-3,1.3-3,3v18c0,1.7,1.3,3,3,3H7C8.7-420,10-421.3,10-423z M7-442
	c0.6,0,1,0.4,1,1v18c0,0.6-0.4,1-1,1H-7c-0.6,0-1-0.4-1-1v-18c0-0.6,0.4-1,1-1H7z"/>
</svg>
