<svg xmlns="http://www.w3.org/2000/svg" xmlns:xlink="http://www.w3.org/1999/xlink" x="0px" y="0px"
	 viewBox="0 0 10 10" style="enable-background:new 0 0 10 10;" xml:space="preserve">
<path fill="#ffffff" opacity="0.7" d="M9.8,0.2c-0.3-0.3-0.7-0.3-1,0L5,4L1.2,0.2c-0.3-0.3-0.7-0.3-1,0c-0.3,0.3-0.3,0.7,0,1L4,5L0.2,8.8
	c-0.3,0.3-0.3,0.7,0,1C0.4,9.9,0.5,10,0.7,10c0.2,0,0.4-0.1,0.5-0.2L5,6l3.8,3.8C8.9,9.9,9.1,10,9.3,10c0.1,0,0.4-0.1,0.5-0.2
	c0.3-0.3,0.3-0.7,0-1L6,5l3.8-3.8C10.1,0.9,10.1,0.5,9.8,0.2z"/>
</svg>
